<svg xmlns="http://www.w3.org/2000/svg" version="1.1" xmlns:xlink="http://www.w3.org/1999/xlink" xmlns:svgjs="http://svgjs.dev/svgjs" width="1000" height="1000" viewBox="0 0 1000 1000"><rect width="1000" height="1000" fill="#000000"></rect><g transform="matrix(0.7,0,0,0.7,149.57593764199498,402.82579369272986)"><svg viewBox="0 0 396 110" data-background-color="#ffffff" preserveAspectRatio="xMidYMid meet" height="277" width="1000" xmlns="http://www.w3.org/2000/svg" xmlns:xlink="http://www.w3.org/1999/xlink"><g id="tight-bounds" transform="matrix(1,0,0,1,0.23989813395712645,0.127192850952639)"><svg viewBox="0 0 395.52 109.74541056600897" height="109.74541056600897" width="395.52"><g><svg viewBox="0 0 565.97479760135 157.0417084667627" height="109.74541056600897" width="395.52"><g transform="matrix(1,0,0,1,0,50.11244097962544)"><svg viewBox="0 0 395.52 56.816826507511834" height="56.816826507511834" width="395.52"><g id="textblocktransform"><svg viewBox="0 0 395.52 56.816826507511834" height="56.816826507511834" width="395.52" id="textblock"><g><svg viewBox="0 0 395.52 56.816826507511834" height="56.816826507511834" width="395.52"><g transform="matrix(1,0,0,1,0,0)"><svg width="395.52" viewBox="3.299999952316284 -34.54999923706055 242.94000244140625 34.89999771118164" height="56.816826507511834" data-palette-color="#1673FF"><path d="M32.85-5.2L32.85-18.3 26.6-5.5Q25.8-3.9 24.9-3.23 24-2.55 22.75-2.55L22.75-2.55Q21.15-2.55 20.05-3.68 18.95-4.8 17.2-7.75L17.2-7.75 11.4-18.3 11.4-4.15Q11.4-2 10.43-1 9.45 0 7.5 0L7.5 0Q5.3 0 4.3-0.98 3.3-1.95 3.3-4.8L3.3-4.8 3.3-26.6Q3.3-30.45 5.05-32.4 6.8-34.35 10.95-34.35L10.95-34.35Q12.5-34.35 13.65-33.83 14.8-33.3 15.38-32.63 15.95-31.95 16.5-30.95L16.5-30.95 23.2-16.3 30.3-30.7Q32.15-34.3 36.95-34.3L36.95-34.3Q39.2-34.3 40.8-33.52 42.4-32.75 43.33-31.03 44.25-29.3 44.25-26.7L44.25-26.7 44.25-4.95Q44.2 0 38 0L38 0Q35.75 0 34.33-1.23 32.9-2.45 32.85-5.2L32.85-5.2ZM65.35-26.1L65.35-26.1Q63.2-26.1 62.17-24.85 61.15-23.6 61.15-20.4L61.15-20.4 61.15-14.5 69.45-14.5 69.45-20.5Q69.45-22.6 68.95-23.88 68.45-25.15 67.57-25.63 66.7-26.1 65.35-26.1ZM69.45-4.95L69.45-7.6 61.15-7.6 61.15-4.95Q61.15-2.4 59.8-1.2 58.45 0 55.15 0L55.15 0Q53.75 0 52.85-0.4 51.95-0.8 51.27-1.75 50.6-2.7 50.27-4.53 49.95-6.35 49.77-8.93 49.6-11.5 49.6-15.45L49.6-15.45Q49.6-18.9 50.32-21.78 51.05-24.65 52.27-26.65 53.5-28.65 55.05-30.18 56.6-31.7 58.42-32.55 60.25-33.4 61.97-33.83 63.7-34.25 65.45-34.25L65.45-34.25Q67.55-34.25 69.6-33.68 71.65-33.1 73.75-31.7 75.85-30.3 77.42-28.23 79-26.15 80-22.85 81-19.55 81-15.45L81-15.45Q81-8.85 80.52-5.68 80.05-2.5 78.92-1.25 77.8 0 75.45 0L75.45 0Q72.15 0 70.8-1.2 69.45-2.4 69.45-4.95L69.45-4.95ZM105.65-25.85L105.65-25.85Q105.65-27.4 103.6-27.4L103.6-27.4Q101.5-27.4 100-25.05 98.5-22.7 98.5-17.2L98.5-17.2Q98.5-12.1 100.22-9.78 101.95-7.45 104.3-7.45L104.3-7.45Q105.05-7.45 105.67-7.75 106.3-8.05 106.7-8.65 107.1-9.25 107.1-10.1L107.1-10.1Q105.9-10.1 105.02-10.55 104.15-11 103.75-11.68 103.35-12.35 103.35-13.15L103.35-13.15Q103.35-14.95 104.3-15.85 105.25-16.75 107.55-16.75L107.55-16.75 113.6-16.75Q116.5-16.75 118.1-15.5 119.7-14.25 119.7-11.1L119.7-11.1Q119.7-6.5 115.3-3.08 110.9 0.35 104.85 0.35L104.85 0.35Q99.3 0.35 94.97-1.65 90.65-3.65 88.12-7.63 85.6-11.6 85.6-17.05L85.6-17.05Q85.6-25.15 90.5-29.85 95.4-34.55 103.5-34.55L103.5-34.55Q106.7-34.55 109.25-34.08 111.8-33.6 113.47-32.8 115.15-32 116.27-30.88 117.4-29.75 117.87-28.5 118.35-27.25 118.35-25.9L118.35-25.9Q118.35-24.95 118.05-24.08 117.75-23.2 116.97-22.33 116.2-21.45 114.6-20.9 113-20.35 110.75-20.35L110.75-20.35Q107.45-20.35 106.55-21.33 105.65-22.3 105.65-25.85ZM157.44-29.95L157.44-4.75Q157.44-2.55 156.14-1.28 154.84 0 152.34 0L152.34 0Q151.69 0 151.04-0.15 150.39-0.3 149.67-0.7 148.94-1.1 148.39-1.45 147.84-1.8 147.02-2.53 146.19-3.25 145.72-3.68 145.24-4.1 144.24-5.05 143.24-6 142.79-6.45L142.79-6.45 133.64-15.1 133.64-4.25Q133.64-1.8 132.72-0.9 131.79 0 129.79 0L129.79 0Q127.59 0 126.54-1 125.49-2 125.49-4.35L125.49-4.35 125.49-28.5Q125.49-31.35 126.94-32.8 128.39-34.25 131.09-34.25L131.09-34.25Q132.94-34.25 134.07-33.68 135.19-33.1 136.74-31.6L136.74-31.6 149.39-19 149.39-29.9Q149.39-32.05 150.47-33.13 151.54-34.2 153.39-34.2L153.39-34.2Q155.54-34.2 156.49-33.2 157.44-32.2 157.44-29.95L157.44-29.95ZM175.74-20.3L184.34-20.3Q186.99-20.3 188.07-19.45 189.14-18.6 189.14-16.55L189.14-16.55Q189.14-14.85 187.87-14.13 186.59-13.4 183.89-13.4L183.89-13.4 175.79-13.4 175.79-8.1 186.64-8.05Q189.44-8.05 190.67-7.23 191.89-6.4 191.89-4.3L191.89-4.3Q191.89-1.9 190.47-0.95 189.04 0 186.14 0L186.14 0 169.94 0Q166.99 0 165.62-1.58 164.24-3.15 164.24-7.15L164.24-7.15 164.24-28.25Q164.24-34.25 169.94-34.25L169.94-34.25 186.14-34.25Q189.04-34.25 190.47-33.35 191.89-32.45 191.89-30.1L191.89-30.1Q191.89-27.9 190.67-27.03 189.44-26.15 186.64-26.15L186.64-26.15 175.74-26.15 175.74-20.3ZM218.99-25.6L218.99-7.5Q218.99-4.65 218.29-2.98 217.59-1.3 216.36-0.65 215.14 0 213.14 0L213.14 0Q210.19 0 208.86-1.58 207.54-3.15 207.49-7.15L207.49-7.15 207.39-25.6 203.14-25.6Q199.99-25.6 198.41-26.6 196.84-27.6 196.84-30.15L196.84-30.15Q196.84-31.7 197.46-32.6 198.09-33.5 199.34-33.88 200.59-34.25 202.69-34.25L202.69-34.25 224.09-34.25Q226.89-34.25 228.14-33.25 229.39-32.25 229.39-29.8L229.39-29.8Q229.39-28.15 228.66-27.23 227.94-26.3 226.74-25.95 225.54-25.6 223.64-25.6L223.64-25.6 218.99-25.6ZM246.24-28.7L246.24-7.5Q246.24-3.6 244.79-1.8 243.34 0 240.39 0L240.39 0Q237.49 0 236.11-1.55 234.74-3.1 234.74-7.1L234.74-7.1 234.74-28.25Q234.74-34.25 240.39-34.25L240.39-34.25Q243.29-34.25 244.76-33.15 246.24-32.05 246.24-28.7L246.24-28.7Z" opacity="1" transform="matrix(1,0,0,1,0,0)" fill="#ffffff" class="wordmark-text-0" data-fill-palette-color="primary" id="text-0"></path></svg></g></svg></g></svg></g></svg></g><g transform="matrix(1,0,0,1,408.93308913458736,0)"><svg viewBox="0 0 157.04170846676274 157.0417084667627" height="157.0417084667627" width="157.04170846676274"><g><svg></svg></g><g id="icon-0"><svg viewBox="0 0 157.04170846676274 157.0417084667627" height="157.0417084667627" width="157.04170846676274"><g><path xmlns="http://www.w3.org/2000/svg" d="M47.113 157.042c-26.02 0-47.113-21.093-47.113-47.113v-62.816c0-26.02 21.093-47.113 47.113-47.113h62.816c26.02 0 47.113 21.093 47.113 47.113v62.816c0 26.02-21.093 47.113-47.113 47.113z" fill="#ffffff" fill-rule="nonzero" stroke="none" stroke-width="1" stroke-linecap="butt" stroke-linejoin="miter" stroke-miterlimit="10" stroke-dasharray="" stroke-dashoffset="0" font-family="none" font-weight="none" font-size="none" text-anchor="none" style="mix-blend-mode: normal" data-fill-palette-color="accent"></path></g><g transform="matrix(1,0,0,1,31.40834169335256,49.76639907355316)"><svg viewBox="0 0 94.22502508005762 57.50891031965639" height="57.50891031965639" width="94.22502508005762"><g><svg xmlns="http://www.w3.org/2000/svg" xmlns:xlink="http://www.w3.org/1999/xlink" version="1.1" x="0" y="0" viewBox="1.399999976158142 13.300000190734863 61.277740478515625 37.400001525878906" style="enable-background:new 0 0 64 64;" xml:space="preserve" height="57.50891031965639" width="94.22502508005762" class="icon-s-0" data-fill-palette-color="quaternary" id="s-0"><g fill="#ffffff" data-fill-palette-color="quaternary"><path d="M35.9 25V13.3h2.2c2.2 0 4 1.8 4 4v3.8c0 2.2-1.8 4-4 4H35.9z" fill="#000000" data-fill-palette-color="quaternary"></path><path d="M38.1 50.7h-2.2V39h2.2c2.2 0 4 1.8 4 4v3.8C42.1 48.9 40.3 50.7 38.1 50.7z" fill="#000000" data-fill-palette-color="quaternary"></path><path d="M30.9 39v11.7H19.2C8 50.7 1.4 43.5 1.4 31.6 1.4 20 7.8 13.3 19 13.3h11.9V25h-12c-5.2 0-7.7 2.2-7.7 6.7 0 5 2.4 7.2 7.7 7.2H30.9z" fill="#000000" data-fill-palette-color="quaternary"></path><path d="M45.1 21.4c0-0.5 0.2-0.9 0.6-1.2l6.4-5.2c0.5-0.4 1.1-0.4 1.6-0.2 0.5 0.3 0.9 0.8 0.9 1.4V19l5.6-4c0.7-0.5 1.7-0.3 2.2 0.4 0.5 0.7 0.3 1.7-0.4 2.2l-8.1 5.8c-0.5 0.3-1.1 0.4-1.6 0.1-0.5-0.3-0.8-0.8-0.8-1.4v-2.5l-3.9 3.1c-0.7 0.5-1.6 0.4-2.2-0.2C45.2 22.1 45.1 21.8 45.1 21.4z" fill="#000000" data-fill-palette-color="quaternary"></path><path d="M45.1 47.1c0-0.5 0.2-0.9 0.6-1.2l6.4-5.2c0.5-0.4 1.1-0.4 1.6-0.2 0.5 0.3 0.9 0.8 0.9 1.4v2.8l5.6-4c0.7-0.5 1.7-0.3 2.2 0.4 0.5 0.7 0.3 1.7-0.4 2.2L53.9 49c-0.5 0.3-1.1 0.4-1.6 0.1-0.5-0.3-0.8-0.8-0.8-1.4v-2.5l-3.9 3.1c-0.7 0.5-1.6 0.4-2.2-0.2C45.2 47.8 45.1 47.4 45.1 47.1z" fill="#000000" data-fill-palette-color="quaternary"></path></g></svg></g></svg></g></svg></g></svg></g></svg></g><defs></defs></svg><rect width="395.52" height="109.74541056600897" fill="none" stroke="none" visibility="hidden"></rect></g></svg></g></svg>