<?xml version="1.0" standalone="no"?>
<!DOCTYPE svg PUBLIC "-//W3C//DTD SVG 20010904//EN"
 "http://www.w3.org/TR/2001/REC-SVG-20010904/DTD/svg10.dtd">
<svg version="1.0" xmlns="http://www.w3.org/2000/svg"
 width="1050.000000pt" height="561.000000pt" viewBox="0 0 1050.000000 561.000000"
 preserveAspectRatio="xMidYMid meet">

<g transform="translate(0.000000,561.000000) scale(0.100000,-0.100000)"
fill="#000000" stroke="none">
<path d="M4933 5538 c-33 -42 -75 -96 -93 -121 -20 -28 -43 -48 -59 -51 -14
-4 -253 -44 -531 -91 -278 -47 -584 -99 -680 -115 -96 -17 -191 -33 -210 -36
-26 -4 -56 -27 -126 -96 l-92 -90 -384 61 c-211 34 -399 61 -418 61 -38 0
-1254 -235 -1281 -248 -9 -4 -218 -215 -464 -469 l-448 -463 -42 0 c-93 0
-121 -118 -35 -149 58 -20 118 29 106 86 -6 25 5 40 124 158 l130 130 0 -104
0 -104 -127 -129 c-123 -123 -128 -128 -169 -128 -25 0 -50 -7 -63 -17 -57
-48 -21 -137 54 -137 47 0 75 31 75 83 0 33 10 46 108 144 59 59 111 107 115
107 4 0 7 -44 7 -97 l0 -98 -117 -112 c-106 -101 -122 -112 -154 -113 -46 0
-77 -25 -85 -67 -5 -27 -1 -37 25 -64 27 -26 37 -30 64 -25 45 9 69 41 65 89
-2 38 1 42 117 152 l120 112 3 279 3 279 307 313 307 313 305 59 c167 32 306
58 307 56 1 -1 -182 -189 -406 -417 -396 -402 -410 -415 -443 -411 -76 9 -118
-79 -63 -133 26 -27 51 -31 89 -14 29 14 50 59 41 89 -6 18 44 73 326 358 183
185 380 385 438 443 l106 106 240 46 c275 53 345 63 345 50 0 -5 -265 -271
-589 -591 l-589 -582 -45 6 c-40 6 -49 3 -71 -19 -34 -34 -34 -79 -1 -112 50
-51 135 -11 135 64 0 12 239 255 606 617 333 330 611 602 617 605 11 6 175
-16 184 -24 2 -3 -262 -267 -587 -588 -451 -445 -598 -585 -618 -587 -60 -6
-73 -13 -88 -47 -16 -40 -7 -75 28 -99 55 -39 118 2 118 75 l0 43 592 585
c325 322 599 591 608 598 13 9 34 10 81 2 138 -21 145 3 -62 -206 -101 -101
-407 -405 -680 -674 l-497 -489 -247 0 -247 0 -30 25 c-58 49 -138 19 -138
-52 0 -78 85 -105 141 -45 l30 32 259 0 259 0 696 691 c599 596 698 690 718
685 13 -3 49 -8 80 -12 32 -4 59 -10 62 -14 2 -3 -105 -115 -238 -248 -231
-230 -245 -242 -280 -242 -77 0 -115 -83 -62 -135 33 -33 78 -33 112 1 21 21
25 32 20 63 l-5 38 302 299 c165 165 326 323 357 352 l56 53 134 24 c74 13
135 22 137 21 1 -2 -220 -222 -492 -490 l-494 -486 -148 0 -148 0 -226 -225
c-176 -175 -232 -225 -252 -225 -43 0 -78 -36 -78 -80 0 -69 69 -102 125 -58
24 19 27 26 23 69 l-5 48 217 215 216 216 149 0 149 0 215 213 c119 117 353
348 521 513 198 195 315 303 333 308 23 6 331 58 890 153 86 14 159 24 162 21
3 -3 8 -35 12 -72 5 -54 9 -66 22 -64 13 3 16 18 16 79 0 84 -1 82 113 229 53
70 61 75 99 78 23 2 56 -1 75 -6 30 -8 34 -13 47 -70 14 -61 14 -62 -17 -133
-36 -80 -40 -112 -16 -107 18 4 84 147 84 184 0 48 -32 153 -49 159 -9 3 -53
9 -97 12 l-82 6 -59 -75z m-2333 -1188 c22 -40 -26 -80 -58 -48 -25 25 -6 68
30 68 9 0 22 -9 28 -20z m-1736 -336 c9 -8 16 -19 16 -24 0 -13 -30 -40 -44
-40 -31 0 -47 45 -24 68 16 16 33 15 52 -4z m-730 -197 c9 -15 7 -22 -12 -37
-27 -23 -62 -12 -62 18 0 42 52 55 74 19z m1026 -26 c13 -25 4 -48 -21 -56
-38 -12 -65 35 -37 63 18 18 46 14 58 -7z m260 -46 c15 -18 10 -45 -13 -59
-26 -16 -62 27 -47 55 13 23 43 25 60 4z m468 -97 c17 -17 15 -43 -4 -59 -31
-26 -70 25 -44 56 15 18 32 19 48 3z m-1740 -60 c19 -19 14 -46 -9 -59 -18 -9
-25 -7 -41 9 -16 16 -18 23 -9 41 13 23 40 28 59 9z m813 -9 c9 -18 7 -25 -9
-41 -16 -16 -23 -18 -41 -9 -23 13 -28 40 -9 59 19 19 46 14 59 -9z m-783
-231 c19 -19 14 -46 -9 -59 -18 -9 -25 -7 -41 9 -16 16 -18 23 -9 41 13 23 40
28 59 9z"/>
<path d="M5292 5522 c-10 -7 -10 -18 -1 -53 11 -42 10 -47 -20 -100 -17 -31
-31 -60 -31 -66 0 -5 61 -32 134 -59 74 -27 142 -53 150 -59 8 -6 60 -83 116
-170 57 -88 110 -167 119 -177 9 -9 85 -49 170 -88 119 -55 156 -68 162 -58 5
7 9 15 9 18 0 3 -71 39 -157 81 l-158 75 -115 179 -115 178 -120 44 c-66 24
-125 45 -132 48 -9 3 -5 17 12 47 28 49 31 84 11 133 -16 39 -16 38 -34 27z"/>
<path d="M2240 5235 c-36 -8 -330 -64 -655 -125 l-590 -111 -425 -423 -425
-424 -37 5 c-30 4 -42 0 -62 -21 -48 -47 -25 -119 41 -132 27 -5 37 -1 63 24
21 22 30 40 30 64 0 30 35 68 419 452 l418 418 579 108 c318 60 611 116 651
124 71 15 72 15 395 -34 177 -28 329 -52 336 -55 6 -2 12 -14 12 -25 0 -33 35
-60 78 -60 48 0 76 28 76 75 0 65 -53 91 -129 64 -25 -10 -87 -3 -361 40 -182
28 -334 50 -340 50 -5 -1 -38 -7 -74 -14z m860 -126 c15 -27 -5 -51 -39 -47
-26 3 -38 26 -27 54 8 22 54 17 66 -7z m-2969 -1010 c9 -18 7 -25 -9 -41 -16
-16 -23 -18 -41 -9 -23 13 -28 40 -9 59 19 19 46 14 59 -9z"/>
<path d="M3887 5090 c-33 -26 -41 -63 -23 -99 27 -52 87 -57 131 -11 26 27 35
30 90 30 51 0 65 -4 82 -22 23 -26 173 -236 173 -243 0 -3 -192 -5 -426 -5
-302 0 -432 -3 -447 -12 -12 -6 -182 -173 -377 -370 l-355 -359 -104 1 c-100
0 -104 1 -138 30 -52 46 -109 38 -133 -20 -22 -54 19 -110 80 -110 11 0 35 14
53 30 34 30 36 30 148 30 l114 0 365 367 365 368 109 3 c62 2 107 0 105 -5 -2
-5 -180 -180 -396 -390 l-392 -380 -273 -68 c-150 -37 -282 -73 -293 -81 -11
-7 -92 -80 -180 -163 l-160 -150 -171 -1 -171 0 -172 -167 -173 -168 -5 -165
c-6 -195 -30 -157 198 -317 l157 -110 212 -7 213 -7 36 25 c20 13 119 92 221
175 l185 151 3 -90 c1 -50 -1 -97 -5 -104 -9 -15 -350 -278 -385 -297 -16 -9
-93 -10 -274 -7 l-253 5 -283 218 c-156 119 -291 226 -300 237 -10 11 -18 33
-18 48 0 33 -40 70 -75 70 -70 0 -103 -97 -47 -140 21 -17 36 -21 67 -16 40 5
44 2 337 -223 l296 -228 99 -6 c54 -4 171 -7 260 -7 89 0 164 -3 166 -7 6 -11
-48 -507 -57 -521 -4 -7 -13 -12 -21 -12 -21 0 -45 -41 -45 -77 0 -44 30 -73
75 -73 68 0 99 76 56 138 -19 27 -19 31 10 292 l28 265 31 26 c17 15 52 41 77
60 l46 32 -6 -39 c-3 -21 -36 -257 -72 -523 -53 -395 -63 -487 -53 -499 7 -9
87 -51 178 -95 91 -44 168 -85 172 -91 4 -6 8 -21 8 -33 0 -57 95 -87 135 -43
25 27 24 83 -1 111 -16 18 -26 20 -73 16 -51 -6 -59 -3 -217 76 -90 45 -165
86 -167 92 -5 14 137 1047 146 1061 8 14 151 124 160 124 4 0 7 -54 7 -120 0
-106 6 -150 55 -387 43 -210 60 -275 80 -303 13 -19 146 -192 294 -384 223
-288 269 -352 261 -367 -15 -28 -12 -54 11 -83 16 -20 29 -26 58 -26 61 0 97
56 75 115 -8 20 -55 45 -86 45 -22 1 -66 55 -536 666 l-64 82 -54 269 -54 268
0 396 c0 305 3 399 13 406 6 5 179 77 382 158 l370 149 126 131 c69 71 145
151 168 177 40 44 46 47 88 46 38 -2 49 2 69 25 29 34 30 66 3 101 -45 57
-139 19 -139 -57 0 -24 -22 -53 -117 -155 -176 -187 -229 -238 -260 -250 -15
-6 -175 -69 -354 -141 -179 -72 -331 -131 -338 -131 -8 0 -11 22 -9 82 l3 83
320 130 320 129 485 481 c267 265 504 498 528 518 41 36 44 37 122 37 44 0 80
-4 80 -8 0 -4 -114 -117 -252 -252 -139 -134 -258 -253 -265 -264 -8 -14 -12
-69 -13 -159 l0 -139 -220 -226 c-122 -125 -234 -235 -251 -246 -17 -10 -104
-47 -195 -81 -90 -34 -167 -65 -170 -68 -3 -3 2 -60 11 -127 l16 -122 -72
-126 -72 -126 82 -616 c45 -338 81 -623 81 -633 0 -11 -9 -30 -20 -44 -29 -37
-26 -87 6 -112 47 -37 102 -24 124 29 16 38 0 82 -35 98 -14 6 -27 22 -30 34
-2 13 -41 295 -85 626 l-81 604 72 126 71 127 -14 113 c-10 79 -11 115 -4 121
12 10 116 53 116 48 0 -2 9 -67 20 -145 l20 -142 -84 -168 -83 -168 44 -339
c140 -1094 131 -1014 116 -1043 -20 -37 -19 -89 3 -113 24 -26 87 -26 114 1
21 21 26 69 10 100 -5 10 -23 22 -39 28 -20 7 -31 19 -35 39 -10 51 -166 1274
-166 1305 0 19 31 90 81 186 l82 155 -21 155 c-12 85 -19 158 -17 163 3 4 45
22 93 39 l87 32 242 247 243 246 0 145 0 145 163 160 c296 292 404 395 414
395 6 0 16 -26 22 -57 42 -213 271 -344 478 -274 43 15 75 19 105 15 60 -8 98
21 98 76 0 68 -69 102 -123 60 -15 -12 -29 -36 -32 -54 -9 -44 -57 -67 -150
-73 -90 -6 -164 20 -234 83 -74 67 -106 138 -106 239 0 96 24 158 88 224 63
65 145 101 232 100 41 0 89 -7 114 -17 37 -14 46 -23 53 -52 11 -42 50 -80 82
-80 71 0 104 96 49 140 -23 18 -36 21 -73 16 -32 -4 -60 0 -98 14 -63 24 -167
26 -237 5 -116 -34 -210 -135 -243 -260 l-17 -66 -70 3 -70 3 -109 153 -109
152 -79 0 c-76 0 -81 2 -108 30 -33 35 -67 38 -103 10z m77 -42 c14 -23 -3
-52 -32 -56 -32 -5 -49 34 -26 59 21 23 42 21 58 -3z m1216 -53 c15 -18 10
-45 -12 -59 -13 -8 -22 -6 -37 8 -25 23 -26 30 -5 50 19 20 38 20 54 1z
m-1460 -780 c-267 -267 -503 -496 -525 -509 -31 -19 -307 -135 -602 -253 -10
-4 -13 13 -13 63 0 38 4 75 8 81 4 7 122 59 262 116 140 57 269 111 285 120
17 8 95 81 175 161 127 129 149 146 177 146 45 0 73 30 73 78 0 49 -27 76 -77
76 -48 0 -73 -31 -73 -90 0 -44 -2 -47 -147 -193 l-148 -148 -270 -106 c-148
-58 -278 -108 -287 -111 -16 -5 -18 -21 -18 -159 0 -107 -4 -158 -12 -170 -7
-9 -101 -88 -208 -176 l-194 -161 -112 0 c-79 0 -115 4 -122 13 -6 7 -12 46
-14 87 l-3 75 -103 3 -104 3 -101 -73 c-56 -39 -104 -73 -106 -74 -1 -2 -2
-61 -2 -133 1 -71 -2 -132 -7 -135 -15 -9 -92 54 -98 81 -4 14 -4 81 -2 150
l5 125 84 84 84 84 296 0 c338 0 290 -12 426 108 64 57 77 64 105 60 67 -10
108 21 108 81 0 41 -31 71 -73 71 -47 0 -76 -24 -83 -70 -5 -33 -19 -50 -83
-108 -124 -111 -89 -102 -385 -102 l-260 0 54 55 54 55 168 0 167 0 70 63 c38
34 118 107 178 163 l109 101 279 69 279 69 361 350 c199 193 389 376 422 408
l62 57 213 0 213 0 -485 -485z m1458 273 c28 -28 1 -75 -37 -63 -27 8 -34 35
-15 56 20 22 35 24 52 7z m-1658 -258 c13 -25 -10 -53 -41 -48 -30 4 -39 46
-14 64 20 15 42 8 55 -16z m-1056 -232 c13 -21 -2 -51 -26 -56 -16 -3 -48 23
-48 38 0 15 32 41 48 38 8 -2 20 -11 26 -20z m1310 -60 c8 -14 6 -22 -10 -38
-23 -24 -50 -18 -59 11 -14 43 45 65 69 27z m-1356 -420 c5 -39 -30 -56 -58
-28 -28 28 -11 63 28 58 21 -2 28 -9 30 -30z m122 -311 c0 -31 -6 -61 -15 -74
-13 -18 -151 -135 -392 -330 l-64 -53 -142 0 -142 0 -28 30 c-55 57 -137 27
-137 -51 0 -29 6 -42 26 -58 37 -29 67 -26 107 9 l35 30 150 0 151 0 223 185
223 185 3 -77 c3 -71 1 -79 -20 -94 -13 -10 -113 -91 -223 -181 l-200 -163
-205 3 -205 4 -92 65 -93 66 0 143 0 142 70 51 c38 28 72 51 74 51 3 0 6 -35
8 -77 l3 -78 237 1 236 0 39 26 c21 15 110 87 198 162 88 74 163 135 168 135
4 1 7 -23 7 -52z m-1572 -309 c17 -17 15 -43 -4 -59 -31 -26 -70 25 -44 56 15
18 32 19 48 3z m746 -134 c21 -8 21 -48 0 -65 -31 -26 -70 25 -44 56 14 17 21
18 44 9z m396 -1034 c13 -25 -10 -53 -41 -48 -30 4 -39 46 -14 64 20 15 42 8
55 -16z m1074 -299 c33 -36 -18 -83 -52 -49 -23 23 -7 68 23 68 7 0 20 -9 29
-19z m181 -216 c0 -24 -5 -31 -24 -33 -32 -5 -54 23 -40 50 7 13 19 18 37 16
23 -2 27 -8 27 -33z m-706 -14 c14 -26 -8 -54 -39 -49 -25 3 -36 27 -26 54 8
20 53 17 65 -5z m681 -180 c0 -41 -52 -54 -74 -18 -9 15 -7 22 12 37 28 23 62
12 62 -19z"/>
<path d="M4793 4935 c-108 -55 -157 -176 -121 -299 16 -55 101 -140 154 -155
70 -19 137 -14 195 17 171 89 180 321 17 429 -34 23 -54 29 -117 31 -66 3 -83
0 -128 -23z m206 -35 c83 -42 134 -145 112 -226 -25 -92 -94 -153 -180 -162
-63 -6 -114 12 -162 55 -138 124 -49 353 138 353 34 0 68 -7 92 -20z"/>
<path d="M4824 4796 c-29 -29 -34 -41 -34 -80 0 -61 37 -105 96 -113 97 -13
164 80 119 167 -21 42 -53 60 -103 60 -37 0 -50 -6 -78 -34z"/>
<path d="M5568 4816 c-42 -6 -79 -14 -82 -17 -7 -7 73 -209 83 -209 3 0 35 54
69 120 l63 120 -28 -1 c-15 -1 -63 -7 -105 -13z"/>
<path d="M1186 4739 c-21 -16 -26 -29 -26 -63 0 -42 -3 -45 -255 -305 l-255
-264 0 -265 0 -265 -137 -131 c-76 -72 -190 -180 -254 -241 -63 -60 -120 -119
-126 -130 -7 -14 1 -242 28 -770 21 -412 40 -767 42 -787 3 -20 37 -107 75
-193 66 -144 70 -159 65 -208 -4 -43 -2 -55 14 -69 56 -50 133 -20 133 53 0
45 -27 79 -62 79 -13 0 -28 4 -34 8 -6 4 -43 77 -81 163 l-71 156 -36 709
c-46 911 -45 829 -15 860 13 15 377 362 808 773 570 542 790 745 805 744 87
-8 136 67 85 131 -46 58 -148 14 -136 -59 5 -33 -1 -39 -476 -492 -264 -252
-505 -480 -534 -507 l-53 -48 0 235 0 235 248 255 c244 252 247 255 290 256
55 1 82 27 82 80 0 31 -6 44 -26 60 -15 12 -37 21 -49 21 -12 0 -34 -9 -49
-21z m74 -33 c6 -8 10 -25 8 -38 -2 -18 -9 -23 -33 -23 -24 0 -31 5 -33 23 -4
25 13 52 33 52 7 0 18 -7 25 -14z m600 -11 c14 -17 5 -51 -17 -59 -17 -7 -53
19 -53 39 0 32 48 46 70 20z m-1410 -3574 c7 -15 5 -24 -8 -41 -16 -19 -22
-21 -40 -11 -21 11 -30 50 -15 64 13 14 53 6 63 -12z"/>
<path d="M6150 4646 c0 -8 18 -90 40 -182 22 -92 39 -169 36 -171 -2 -2 -79 0
-172 6 -153 8 -180 13 -282 46 -62 20 -117 33 -122 30 -28 -17 -1 -34 108 -69
104 -34 134 -39 272 -47 85 -4 177 -8 204 -9 l48 0 -7 38 c-13 61 -9 69 69
154 42 45 76 85 76 89 0 13 -223 129 -247 129 -13 0 -23 -6 -23 -14z"/>
<path d="M4730 4260 c-31 -31 -35 -65 -12 -105 19 -32 20 -38 7 -82 -7 -27
-20 -73 -29 -104 l-16 -57 -141 -56 c-78 -32 -143 -55 -146 -53 -2 3 10 60 28
127 30 112 36 124 66 144 43 28 59 67 44 105 -22 53 -87 66 -126 26 -29 -28
-34 -85 -10 -105 8 -7 15 -22 15 -34 0 -43 -68 -268 -86 -287 -11 -10 -97 -49
-193 -86 l-174 -68 -302 -693 c-166 -381 -304 -695 -307 -697 -5 -6 -28 247
-28 312 0 33 30 105 145 345 80 166 152 312 160 324 8 12 28 25 45 29 59 13
81 92 37 133 -40 37 -98 28 -123 -19 -12 -24 -13 -37 -3 -67 11 -37 8 -44
-142 -357 -108 -227 -154 -332 -157 -365 -8 -92 106 -1092 146 -1270 8 -35 8
-35 232 -126 209 -84 226 -93 241 -124 31 -64 90 -80 134 -35 42 41 30 102
-25 125 -26 11 -36 10 -68 -4 l-37 -17 -210 85 c-115 47 -213 90 -219 96 -5 5
-36 193 -67 417 l-57 407 18 45 c37 95 253 586 260 595 5 5 56 -86 114 -203
l106 -211 -21 -127 c-11 -71 -21 -144 -21 -163 0 -25 49 -136 171 -390 154
-318 171 -357 161 -380 -14 -33 0 -72 32 -94 30 -22 60 -20 92 5 55 43 21 139
-50 139 -29 0 -33 7 -200 355 l-171 355 25 152 24 153 -118 237 -118 236 68
159 c103 238 96 227 166 253 33 12 63 20 67 17 3 -4 -31 -95 -76 -203 l-82
-196 116 -248 115 -248 -31 -131 -32 -132 113 -235 112 -234 -16 -40 c-18 -46
-10 -79 26 -104 30 -22 60 -20 92 5 50 40 27 123 -40 143 -15 5 -50 67 -132
239 l-111 232 21 93 c12 50 24 92 27 92 3 0 39 -73 80 -162 62 -134 72 -164
63 -179 -52 -83 60 -165 126 -93 41 46 19 106 -48 128 -32 11 -41 27 -231 436
-109 234 -198 431 -199 438 0 20 160 404 176 422 12 13 514 203 521 197 1 -2
-38 -466 -87 -1032 -48 -567 -85 -1033 -82 -1037 4 -4 112 -36 241 -72 129
-36 236 -68 239 -70 2 -3 11 -19 20 -37 40 -79 152 -48 152 42 0 28 -44 69
-76 69 -14 0 -38 -7 -54 -16 -27 -16 -35 -15 -254 47 l-226 63 0 35 c0 19 25
325 55 680 31 356 69 801 85 991 26 296 32 347 47 358 234 176 691 503 707
507 11 3 192 32 401 65 209 33 395 62 413 65 30 6 43 27 24 39 -5 3 -203 -26
-440 -64 l-432 -68 -52 -38 c-29 -21 -181 -133 -338 -248 l-285 -209 -305
-113 c-391 -143 -450 -164 -450 -160 0 11 133 303 143 313 7 6 167 73 357 149
190 75 350 141 356 146 6 4 19 36 29 71 42 154 47 167 61 167 28 0 64 47 64
84 0 64 -85 101 -130 56z m80 -35 c15 -18 10 -45 -12 -59 -14 -8 -22 -6 -39
10 -17 18 -19 25 -10 43 13 24 43 28 61 6z m-326 -54 c33 -36 -18 -83 -52 -49
-23 23 -7 68 23 68 7 0 20 -9 29 -19z m-806 -823 c19 -19 14 -46 -9 -59 -18
-9 -25 -7 -41 9 -16 16 -18 23 -9 41 13 23 40 28 59 9z m623 -1424 c17 -21 0
-49 -31 -49 -31 0 -48 28 -31 49 8 9 21 16 31 16 10 0 23 -7 31 -16z m-31
-349 c15 -18 10 -45 -13 -59 -26 -16 -62 27 -47 55 13 23 43 25 60 4z m-26
-297 c8 -13 8 -23 0 -35 -15 -24 -44 -23 -61 3 -12 19 -12 24 3 38 20 20 43
18 58 -6z m736 7 c14 -17 5 -51 -16 -59 -22 -8 -54 11 -54 32 0 38 46 56 70
27z m-976 -188 c36 -26 -4 -84 -41 -61 -24 15 -27 38 -8 58 20 19 26 20 49 3z"/>
<path d="M1205 3421 c-12 -5 -27 -16 -34 -25 -12 -14 -45 -16 -249 -16 l-236
0 -185 -184 -185 -184 35 -724 36 -723 -29 -30 c-38 -42 -39 -95 -2 -124 34
-27 64 -27 98 0 36 29 36 82 -1 121 -27 28 -27 28 -39 275 -7 137 -13 286 -13
333 l-1 85 119 130 118 130 45 -3 c39 -3 48 0 67 23 27 35 27 65 0 99 -16 20
-29 26 -59 26 -49 0 -80 -30 -80 -78 0 -29 -15 -50 -102 -147 -57 -62 -106
-114 -109 -114 -4 -1 -9 46 -13 102 l-7 104 218 224 c120 123 247 254 282 292
57 60 68 67 102 67 51 0 67 8 85 41 18 36 10 73 -23 99 -55 43 -120 9 -125
-65 -3 -42 -11 -51 -268 -318 l-265 -275 -6 36 c-4 21 -10 118 -14 217 l-7
180 174 173 174 172 215 0 215 0 31 -35 c58 -65 143 -39 143 43 0 57 -54 94
-105 73z m63 -79 c-2 -23 -8 -27 -33 -27 -24 0 -31 5 -33 24 -5 32 23 54 50
40 13 -7 18 -19 16 -37z m-244 -164 c27 -39 -18 -80 -52 -46 -15 15 -15 41 0
56 18 18 35 15 52 -10z m-303 -604 c17 -21 0 -49 -31 -49 -31 0 -48 28 -31 49
8 9 21 16 31 16 10 0 23 -7 31 -16z m-293 -1076 c17 -17 15 -43 -4 -59 -31
-26 -70 25 -44 56 15 18 32 19 48 3z"/>
<path d="M5520 2285 l0 -1126 433 3 c484 4 480 3 595 78 45 29 73 57 102 102
70 107 75 137 75 438 0 251 -1 268 -23 321 -32 81 -82 133 -163 172 l-70 34
45 17 c60 23 132 88 161 146 38 76 48 159 43 383 -6 229 -13 266 -78 365 -28
45 -57 73 -100 102 -125 80 -199 90 -677 90 l-343 0 0 -1125z m727 755 c65
-39 68 -52 68 -280 0 -187 -2 -208 -20 -239 -40 -68 -61 -76 -216 -79 l-139
-4 0 311 0 311 138 0 c118 0 141 -3 169 -20z m18 -940 c52 -49 55 -63 55 -290
0 -234 -4 -255 -63 -290 -28 -17 -51 -20 -174 -20 l-143 0 0 316 0 315 149 -3
c143 -3 151 -4 176 -28z"/>
<path d="M7320 3407 c0 -2 -101 -507 -225 -1121 -124 -615 -225 -1120 -225
-1122 0 -2 88 -4 195 -4 194 0 195 0 200 22 8 35 75 402 75 411 0 4 90 7 199
7 l199 0 11 -67 c7 -38 24 -137 38 -220 l26 -153 214 0 213 0 -5 22 c-6 24
-445 2221 -445 2225 0 2 -106 3 -235 3 -129 0 -235 -2 -235 -3z m298 -1049
c34 -222 62 -409 62 -415 0 -10 -35 -13 -141 -13 l-141 0 5 23 c3 12 36 199
73 415 37 215 71 392 74 392 3 0 34 -181 68 -402z"/>
<path d="M8450 2285 l0 -1125 205 0 205 0 0 1125 0 1125 -205 0 -205 0 0
-1125z"/>
<path d="M9170 2286 l0 -1126 210 0 210 0 0 466 0 466 138 -4 c154 -3 179 -12
222 -76 25 -35 25 -37 31 -346 6 -331 11 -370 61 -441 12 -19 41 -44 63 -57
36 -21 55 -23 203 -26 l162 -4 0 62 c0 50 -5 67 -25 94 -53 70 -58 98 -64 421
-6 280 -7 303 -28 347 -29 63 -106 139 -165 163 -27 11 -48 22 -48 25 0 3 20
13 44 23 68 28 121 80 158 155 l33 67 3 221 c3 133 -1 251 -7 295 -29 189
-148 322 -337 375 -49 14 -125 18 -461 21 l-403 5 0 -1126z m750 739 c47 -45
52 -78 48 -310 -3 -190 -5 -213 -23 -245 -34 -59 -71 -70 -222 -70 l-133 0 0
331 0 330 149 -3 150 -3 31 -30z"/>
<path d="M683 3240 c-72 -29 -44 -150 34 -150 83 0 111 115 37 149 -29 13 -41
13 -71 1z m61 -46 c19 -18 19 -20 6 -45 -6 -10 -19 -19 -28 -19 -39 0 -57 50
-24 69 23 14 28 14 46 -5z"/>
<path d="M2722 3180 c-33 -31 -30 -86 7 -125 l30 -30 76 -554 c42 -305 74
-558 72 -564 -1 -5 -30 31 -63 80 l-60 89 -28 226 -27 226 26 26 c63 63 -5
162 -90 130 -23 -9 -48 -62 -41 -90 4 -13 20 -36 36 -51 29 -27 30 -32 55
-238 14 -115 27 -220 30 -232 3 -13 44 -80 92 -149 100 -148 112 -183 77 -221
-70 -76 19 -186 100 -122 38 30 36 81 -7 128 l-32 36 -68 494 -68 494 58 101
c51 88 62 101 91 107 46 9 72 36 72 73 0 91 -114 114 -152 31 -8 -18 -8 -32 2
-54 11 -28 9 -36 -31 -106 -50 -87 -50 -87 -68 58 l-13 98 26 20 c20 16 26 30
26 58 0 70 -78 107 -128 61z m78 -35 c26 -31 -13 -82 -44 -56 -19 16 -21 57
-3 64 22 9 34 7 47 -8z m201 -95 c21 -12 25 -40 7 -58 -18 -18 -46 -14 -58 9
-9 16 -8 25 6 40 20 22 20 22 45 9z m-273 -412 c28 -28 1 -75 -37 -63 -25 8
-34 31 -21 56 12 21 40 25 58 7z m260 -970 c17 -17 15 -43 -4 -59 -31 -26 -70
25 -44 56 15 18 32 19 48 3z"/>
<path d="M4060 3110 c0 -12 7 -20 18 -20 9 -1 69 -7 132 -14 63 -7 118 -11
123 -9 6 4 11 33 5 33 -279 35 -278 35 -278 10z"/>
<path d="M472 3010 c-33 -31 -30 -92 4 -119 15 -12 37 -21 49 -21 12 0 34 9
49 21 20 16 26 29 26 59 0 68 -79 105 -128 60z m76 -32 c17 -17 15 -43 -4 -59
-31 -26 -70 25 -44 56 15 18 32 19 48 3z"/>
<path d="M4062 2963 c3 -15 22 -20 108 -30 155 -17 170 -16 170 5 0 16 -15 20
-114 30 -155 16 -168 16 -164 -5z"/>
<path d="M4050 2811 c0 -21 15 -25 135 -36 33 -3 77 -8 98 -11 33 -5 37 -3 37
15 0 12 -1 21 -2 21 -2 0 -59 7 -128 15 -69 8 -128 15 -132 15 -5 0 -8 -9 -8
-19z"/>
<path d="M870 2630 c-27 -27 -27 -83 1 -111 l21 -21 -152 -402 -151 -403 27
-244 28 -244 -22 -46 c-18 -36 -20 -52 -13 -72 33 -86 151 -63 151 28 0 32
-34 75 -58 75 -13 0 -18 19 -26 95 -3 28 -15 128 -26 224 l-20 174 151 401
c136 363 153 403 180 418 50 29 59 87 21 131 -21 24 -86 23 -112 -3z m89 -39
c14 -26 -8 -54 -39 -49 -25 3 -36 27 -26 54 8 20 53 17 65 -5z m-251 -1453
c19 -19 14 -46 -10 -59 -18 -10 -24 -8 -40 11 -31 38 15 83 50 48z"/>
<path d="M4100 2614 c0 -25 172 -355 188 -362 8 -3 17 0 21 7 12 19 35 331 25
341 -9 8 -163 30 -211 30 -15 0 -23 -6 -23 -16z"/>
<path d="M1110 2520 c-21 -21 -28 -94 -10 -105 6 -3 10 -13 10 -21 0 -9 -72
-197 -160 -418 -153 -385 -160 -406 -160 -472 1 -96 18 -216 32 -231 7 -6 100
-48 207 -93 107 -44 200 -85 208 -91 7 -7 13 -20 13 -31 0 -30 45 -68 80 -68
36 0 80 38 80 69 0 63 -54 102 -112 81 -32 -12 -45 -8 -237 72 -112 47 -207
91 -212 100 -4 8 -11 66 -15 129 l-6 114 162 408 c143 361 165 410 188 420 48
20 62 38 62 79 0 49 -28 78 -75 78 -22 0 -43 -8 -55 -20z m88 -49 c5 -32 -23
-54 -49 -40 -19 10 -26 49 -12 63 4 4 19 6 33 4 18 -2 26 -10 28 -27z m157
-1377 c19 -20 16 -43 -7 -58 -38 -23 -78 35 -42 61 23 17 29 16 49 -3z"/>
<path d="M625 2355 c-43 -43 -26 -115 31 -129 53 -14 104 28 104 85 0 31 -44
69 -80 69 -19 0 -40 -9 -55 -25z m85 -30 c14 -17 5 -51 -16 -59 -22 -8 -54 11
-54 32 0 38 46 56 70 27z"/>
<path d="M1543 2298 c-56 -27 -50 -114 9 -139 38 -16 31 3 200 -489 116 -337
139 -411 133 -440 -11 -58 -6 -84 20 -108 32 -28 65 -28 99 -1 20 16 26 29 26
60 0 44 -23 71 -67 79 -26 5 -34 24 -181 450 -148 430 -153 446 -138 472 23
38 20 75 -9 103 -25 26 -56 31 -92 13z m71 -50 c13 -21 -2 -51 -26 -56 -16 -3
-48 23 -48 38 0 15 32 41 48 38 8 -2 20 -11 26 -20z m360 -1034 c21 -8 21 -48
0 -65 -29 -24 -65 17 -50 57 6 15 24 18 50 8z"/>
<path d="M1766 2179 c-20 -16 -26 -29 -26 -59 0 -32 6 -44 35 -67 33 -27 42
-49 130 -319 86 -265 93 -291 80 -311 -31 -47 -14 -104 35 -122 56 -19 100 14
100 76 0 37 -12 54 -51 72 -34 16 -47 50 -214 572 -3 9 4 26 15 39 32 37 30
85 -6 118 -31 28 -64 28 -98 1z m78 -40 c17 -25 12 -46 -15 -54 -38 -12 -65
35 -37 63 18 18 35 15 52 -9z m234 -758 c5 -32 -23 -54 -49 -40 -19 10 -26 49
-12 63 4 4 19 6 33 4 18 -2 26 -10 28 -27z"/>
<path d="M516 2105 c-52 -48 -17 -135 54 -135 36 0 80 38 80 69 0 49 -41 91
-89 91 -10 0 -30 -11 -45 -25z m79 -31 c19 -20 16 -43 -7 -58 -38 -23 -78 35
-42 61 23 17 29 16 49 -3z"/>
<path d="M4351 1312 c-8 -15 -15 -68 -12 -100 1 -10 38 -11 174 -6 94 4 176
11 182 15 19 18 -23 37 -161 73 -161 41 -170 42 -183 18z"/>
<path d="M2117 1273 c-3 -5 -8 -31 -12 -59 -5 -38 -3 -54 7 -60 7 -5 80 -7
162 -5 253 5 257 27 15 90 -172 45 -166 44 -172 34z"/>
<path d="M3446 1143 c-3 -16 -8 -45 -12 -67 l-7 -38 176 3 c174 4 215 12 185
37 -12 9 -303 92 -326 92 -6 0 -13 -12 -16 -27z"/>
<path d="M825 1148 c-2 -7 -6 -35 -7 -63 l-3 -50 173 1 c169 0 212 8 187 33
-10 10 -306 91 -331 91 -8 0 -17 -6 -19 -12z"/>
<path d="M0 210 l0 -213 87 5 c79 4 88 7 110 32 33 39 33 127 0 160 -22 22
-23 24 -5 35 15 9 18 24 18 80 0 92 -12 103 -125 109 l-85 5 0 -213z m151 138
c12 -18 11 -65 -1 -89 -8 -14 -21 -19 -50 -19 l-40 0 0 66 0 67 41 -6 c23 -3
46 -11 50 -19z m-2 -172 c7 -8 11 -36 9 -63 l-3 -48 -47 -3 -48 -3 0 65 0 66
39 0 c21 0 44 -6 50 -14z"/>
<path d="M304 407 c-2 -7 -3 -100 -2 -207 l3 -195 93 -3 92 -3 0 31 0 30 -65
0 -65 0 0 64 0 65 48 3 c43 3 47 5 47 28 0 23 -4 25 -47 28 l-48 3 0 55 0 54
65 0 65 0 0 30 0 30 -90 0 c-64 0 -92 -4 -96 -13z"/>
<path d="M575 408 c-3 -7 -4 -101 -3 -208 l3 -195 28 -3 27 -3 0 91 0 91 48
-3 47 -3 5 -78 c5 -82 14 -97 58 -97 15 0 22 6 22 19 0 11 -4 23 -10 26 -5 3
-10 33 -10 66 0 45 -5 64 -19 78 -19 19 -19 20 0 37 29 26 27 124 -4 160 -21
24 -32 28 -105 32 -64 4 -83 2 -87 -10z m136 -48 c15 -8 19 -21 19 -58 0 -58
-12 -72 -62 -72 l-38 0 0 63 c0 35 3 67 7 70 10 10 52 8 74 -3z"/>
<path d="M880 210 l0 -210 30 0 30 0 0 65 c0 58 14 115 29 115 3 0 22 -40 42
-88 33 -82 37 -87 67 -90 18 -2 32 0 32 3 0 4 -23 58 -51 121 l-50 114 50 84
c28 46 51 87 51 90 0 3 -13 6 -30 6 -26 0 -34 -8 -82 -95 l-53 -95 -3 95 -3
95 -29 0 -30 0 0 -210z"/>
<path d="M1180 210 l0 -210 95 0 95 0 0 30 0 30 -65 0 -65 0 0 64 0 65 48 3
c43 3 47 5 47 28 0 23 -4 25 -47 28 l-48 3 0 55 0 54 65 0 65 0 0 30 0 30 -95
0 -95 0 0 -210z"/>
<path d="M1450 210 l0 -210 95 0 95 0 0 30 0 30 -65 0 -65 0 0 180 0 180 -30
0 -30 0 0 -210z"/>
<path d="M1710 210 l0 -210 95 0 95 0 0 30 0 30 -65 0 -65 0 0 65 0 65 45 0
c43 0 45 1 45 30 0 29 -2 30 -45 30 l-45 0 0 55 0 55 65 0 65 0 0 30 0 30 -95
0 -95 0 0 -210z"/>
<path d="M1950 409 c0 -6 19 -54 42 -107 36 -85 42 -109 47 -197 l6 -100 28
-3 27 -3 0 80 c0 73 5 92 50 206 28 69 50 128 50 130 0 3 -13 5 -29 5 -28 0
-31 -4 -55 -77 -39 -117 -39 -117 -76 -14 -31 86 -34 91 -61 91 -16 0 -29 -5
-29 -11z"/>
<path d="M2450 415 c0 -3 -20 -96 -45 -205 -25 -109 -45 -202 -45 -205 0 -3
12 -5 27 -3 27 3 32 13 47 81 6 24 11 27 47 27 23 0 41 -5 44 -13 2 -6 9 -31
15 -54 9 -36 15 -43 35 -43 13 0 26 3 28 8 2 4 -17 97 -42 207 l-46 200 -33 3
c-17 2 -32 0 -32 -3z m60 -237 c0 -13 -8 -18 -30 -18 -34 0 -33 -2 -20 60 22
100 22 99 36 35 7 -33 13 -68 14 -77z"/>
<path d="M2675 408 c-3 -7 -4 -101 -3 -208 l3 -195 28 -3 27 -3 0 91 0 91 48
-3 47 -3 5 -78 c5 -82 14 -97 58 -97 15 0 22 6 22 19 0 11 -4 23 -10 26 -5 3
-10 33 -10 66 0 45 -5 64 -19 78 -19 19 -19 20 0 37 29 26 27 124 -4 160 -21
24 -32 28 -105 32 -64 4 -83 2 -87 -10z m136 -48 c15 -8 19 -21 19 -58 0 -58
-12 -72 -62 -72 l-38 0 0 63 c0 35 3 67 7 70 10 10 52 8 74 -3z"/>
<path d="M2957 413 c-4 -3 -7 -17 -7 -30 0 -21 5 -23 45 -23 l45 0 0 -181 0
-180 28 3 27 3 3 178 2 177 40 0 c38 0 40 2 40 30 l0 30 -108 0 c-60 0 -112
-3 -115 -7z"/>
<path d="M3250 210 l0 -210 30 0 30 0 0 210 0 210 -30 0 -30 0 0 -210z"/>
<path d="M3400 210 l0 -210 30 0 29 0 3 92 3 93 48 3 c42 3 47 5 47 28 0 22
-4 24 -50 24 l-50 0 0 60 0 60 65 0 65 0 0 30 0 30 -95 0 -95 0 0 -210z"/>
<path d="M3660 210 l0 -210 30 0 30 0 0 210 0 210 -30 0 -30 0 0 -210z"/>
<path d="M3839 390 l-30 -30 3 -156 3 -156 28 -24 c22 -19 40 -24 80 -24 64 0
93 18 107 68 18 66 14 82 -20 82 -28 0 -30 -2 -30 -38 0 -21 -5 -43 -12 -50
-15 -15 -53 -16 -79 -2 -17 10 -19 22 -19 148 0 151 4 162 55 162 41 0 55 -16
55 -62 0 -36 2 -38 30 -38 34 0 38 16 20 82 -14 50 -43 68 -108 68 -46 0 -58
-4 -83 -30z"/>
<path d="M4120 210 l0 -210 25 0 25 0 0 210 0 210 -25 0 -25 0 0 -210z"/>
<path d="M4330 415 c0 -3 -20 -96 -45 -205 -25 -109 -45 -202 -45 -205 0 -3
12 -5 27 -3 27 3 32 13 47 81 6 24 11 27 47 27 23 0 41 -5 44 -13 2 -6 9 -31
15 -54 10 -39 14 -43 41 -43 26 0 29 3 23 24 -3 13 -24 107 -47 207 l-42 184
-33 3 c-17 2 -32 0 -32 -3z m60 -237 c0 -13 -8 -18 -30 -18 -34 0 -33 -2 -20
60 22 100 22 99 36 35 7 -33 13 -68 14 -77z"/>
<path d="M4554 407 c-2 -7 -3 -100 -2 -207 l3 -195 93 -3 92 -3 0 31 0 30 -65
0 -65 0 0 180 0 180 -25 0 c-14 0 -28 -6 -31 -13z"/>
<path d="M4940 210 l0 -210 30 0 30 0 0 210 0 210 -30 0 -30 0 0 -210z"/>
<path d="M5090 211 l0 -211 30 0 30 0 1 133 0 132 67 -133 c55 -110 70 -132
87 -130 19 3 20 11 20 208 l0 205 -27 3 -28 3 0 -138 0 -138 -64 135 c-56 119
-66 135 -90 138 l-26 3 0 -210z"/>
<path d="M5397 413 c-4 -3 -7 -17 -7 -30 0 -21 5 -23 45 -23 l45 0 0 -181 0
-180 28 3 27 3 3 178 2 177 40 0 c38 0 40 2 40 30 l0 30 -108 0 c-60 0 -112
-3 -115 -7z"/>
<path d="M5690 210 l0 -210 95 0 95 0 0 30 0 30 -65 0 -65 0 0 65 0 65 45 0
c43 0 45 1 45 30 0 29 -2 30 -45 30 l-45 0 0 55 0 55 65 0 65 0 0 30 0 30 -95
0 -95 0 0 -210z"/>
<path d="M5960 210 l0 -210 95 0 95 0 0 30 0 30 -65 0 -65 0 0 180 0 180 -30
0 -30 0 0 -210z"/>
<path d="M6220 210 l0 -211 93 3 92 3 3 28 3 27 -65 0 -66 0 -2 178 -3 177
-27 3 -28 3 0 -211z"/>
<path d="M6480 210 l0 -211 28 3 27 3 0 205 0 205 -27 3 -28 3 0 -211z"/>
<path d="M6661 399 c-35 -33 -41 -61 -41 -190 0 -128 12 -179 48 -198 31 -17
108 -14 126 5 15 14 17 14 22 0 3 -9 12 -16 20 -16 11 0 14 23 14 110 l0 110
-55 0 c-52 0 -55 -2 -55 -24 0 -19 6 -25 28 -28 25 -3 27 -6 26 -45 -1 -51
-17 -73 -55 -73 -48 0 -59 29 -59 160 0 130 11 160 59 160 35 0 51 -17 51 -52
0 -25 4 -28 31 -28 31 0 32 0 26 42 -8 61 -42 88 -111 88 -39 0 -58 -5 -75
-21z"/>
<path d="M6940 210 l0 -210 95 0 95 0 0 30 0 30 -70 0 -70 0 0 65 0 65 50 0
c49 0 50 1 50 30 0 29 -1 30 -50 30 l-50 0 0 55 0 55 70 0 70 0 0 30 0 30 -95
0 -95 0 0 -210z"/>
<path d="M7210 210 l0 -210 25 0 24 0 3 133 3 132 68 -132 c52 -104 72 -133
87 -133 19 0 20 7 20 211 l0 210 -27 -3 -28 -3 -3 -129 -3 -129 -54 114 c-70
146 -71 149 -95 149 -19 0 -20 -7 -20 -210z"/>
<path d="M7559 391 l-29 -29 0 -152 0 -152 29 -29 c26 -25 37 -29 86 -29 76 0
105 27 105 100 0 47 -2 50 -25 50 -22 0 -25 -4 -25 -34 0 -42 -22 -66 -59 -66
-47 0 -51 13 -51 160 0 150 4 160 57 160 37 0 53 -21 53 -69 0 -26 4 -31 25
-31 23 0 25 3 25 50 0 73 -29 100 -105 100 -49 0 -60 -4 -86 -29z"/>
<path d="M7840 210 l0 -211 93 3 92 3 3 28 3 27 -70 0 -71 0 0 65 0 65 50 0
c49 0 50 1 50 30 0 29 -1 30 -50 30 l-50 0 0 55 0 54 68 3 c64 3 67 4 67 28 0
25 -1 25 -92 28 l-93 3 0 -211z"/>
<path d="M8240 210 l0 -210 25 0 c25 0 25 1 25 91 l0 90 48 -3 47 -3 6 -79 c7
-82 15 -96 57 -96 15 0 22 6 22 19 0 11 -4 23 -10 26 -5 3 -10 33 -10 66 0 44
-5 64 -19 78 -18 18 -18 19 0 35 15 12 19 29 19 78 -1 95 -29 118 -146 118
l-64 0 0 -210z m131 150 c15 -8 19 -21 19 -58 0 -58 -12 -72 -62 -72 l-38 0 0
63 c0 35 3 67 7 70 10 10 52 8 74 -3z"/>
<path d="M8540 210 l0 -210 95 0 95 0 0 30 0 30 -65 0 -65 0 0 64 0 65 48 3
c43 3 47 5 47 28 0 23 -4 25 -47 28 l-48 3 0 55 0 54 65 0 65 0 0 30 0 30 -95
0 -95 0 0 -210z"/>
<path d="M8835 397 c-36 -30 -43 -91 -17 -133 11 -17 46 -51 78 -75 48 -36 60
-51 62 -78 4 -40 -12 -61 -47 -61 -35 0 -51 17 -51 52 0 24 -4 28 -30 28 -28
0 -30 -3 -30 -36 0 -26 8 -43 29 -65 25 -25 37 -29 81 -29 44 0 56 4 81 29 23
23 29 38 29 71 0 59 -20 90 -89 139 -63 43 -83 79 -64 110 12 20 59 26 78 11
8 -6 15 -24 17 -38 2 -21 9 -28 31 -30 25 -3 27 -1 27 33 0 57 -44 95 -109 95
-37 0 -56 -6 -76 -23z"/>
<path d="M9105 408 c-3 -8 -4 -101 -3 -208 l3 -195 95 0 95 0 3 28 3 27 -70 0
-71 0 0 65 0 65 50 0 c49 0 50 1 50 30 0 29 -1 30 -50 30 l-50 0 0 55 0 54 68
3 c64 3 67 4 67 28 0 25 -1 25 -93 28 -69 2 -94 -1 -97 -10z"/>
<path d="M9431 383 c-18 -67 -81 -356 -81 -370 0 -7 11 -13 25 -13 20 0 26 7
35 43 6 23 13 48 15 54 3 8 21 13 44 13 36 0 41 -3 47 -27 15 -68 20 -78 47
-81 16 -2 27 2 27 8 0 12 -76 357 -86 393 -4 11 -15 17 -34 17 -25 0 -31 -5
-39 -37z m55 -145 c17 -82 18 -78 -16 -78 -16 0 -30 5 -30 11 0 25 24 139 28
134 2 -2 10 -32 18 -67z"/>
<path d="M9660 211 l0 -211 30 0 30 0 0 90 0 90 38 0 c53 0 62 -13 62 -90 0
-72 10 -90 48 -90 23 0 24 3 18 37 -3 21 -6 57 -6 81 0 31 -6 49 -23 66 -22
22 -22 22 -2 38 16 13 20 27 20 82 0 94 -16 108 -130 114 l-85 5 0 -212z m138
143 c16 -11 22 -25 22 -50 0 -56 -15 -74 -60 -74 l-40 0 0 70 c0 70 0 70 28
70 15 0 38 -7 50 -16z"/>
<path d="M10007 409 c-37 -22 -47 -62 -47 -199 0 -179 17 -210 115 -210 25 0
55 5 67 11 24 13 48 67 48 109 0 27 -3 30 -30 30 -28 0 -30 -2 -30 -38 0 -45
-14 -62 -51 -62 -52 0 -59 19 -59 160 0 141 7 160 59 160 37 0 51 -17 51 -62
0 -36 2 -38 30 -38 27 0 30 3 30 30 0 42 -24 96 -48 109 -26 14 -111 14 -135
0z"/>
<path d="M10270 210 l0 -211 28 3 c27 3 27 3 30 91 l3 87 54 0 54 0 3 -88 c3
-87 3 -87 31 -90 l27 -3 0 211 0 211 -27 -3 c-28 -3 -28 -3 -31 -90 l-3 -88
-54 0 -54 0 -3 88 c-3 87 -3 87 -30 90 l-28 3 0 -211z"/>
</g>
</svg>
